<mxfile host="www.draw.io" modified="2019-10-21T11:50:29.886Z" agent="Mozilla/5.0 (Macintosh; Intel Mac OS X 10_14_6) AppleWebKit/605.1.15 (KHTML, like Gecko) Version/13.0.2 Safari/605.1.15" etag="LIvGOcnD_V89Tdlt7mS7" version="12.1.3" type="github" pages="1">
  <diagram id="5cKMBXo00QwnDW6Vnjaq" name="Page-1">
    <mxGraphModel dx="1553" dy="948" grid="0" gridSize="10" guides="1" tooltips="1" connect="1" arrows="1" fold="1" page="1" pageScale="1" pageWidth="3300" pageHeight="4681" math="0" shadow="0">
      <root>
        <mxCell id="0"/>
        <mxCell id="1" parent="0"/>
        <mxCell id="jVW55D45m2aqDD3Mp7KM-1" value="" style="rounded=0;whiteSpace=wrap;html=1;strokeColor=#6c8ebf;strokeWidth=1;fillColor=#dae8fc;fontSize=12;align=center;" parent="1" vertex="1">
          <mxGeometry x="558" y="30" width="682" height="340" as="geometry"/>
        </mxCell>
        <mxCell id="jVW55D45m2aqDD3Mp7KM-2" value="" style="rounded=0;whiteSpace=wrap;html=1;strokeColor=#666666;fillColor=#f5f5f5;fontSize=12;align=center;fontColor=#333333;" parent="1" vertex="1">
          <mxGeometry x="277" y="40" width="170" height="310" as="geometry"/>
        </mxCell>
        <mxCell id="jVW55D45m2aqDD3Mp7KM-9" value="" style="shape=image;html=1;verticalAlign=top;verticalLabelPosition=bottom;labelBackgroundColor=#ffffff;imageAspect=0;aspect=fixed;image=https://cdn4.iconfinder.com/data/icons/VISTA/networking/png/128/firewall.png;strokeColor=#6881B3;fillColor=#99CCFF;fontSize=12;align=center;" parent="1" vertex="1">
          <mxGeometry x="198" y="195" width="40" height="40" as="geometry"/>
        </mxCell>
        <mxCell id="jVW55D45m2aqDD3Mp7KM-10" value="" style="endArrow=none;html=1;fontSize=12;entryX=0;entryY=0.5;entryDx=0;entryDy=0;exitX=1.114;exitY=0.482;exitDx=0;exitDy=0;exitPerimeter=0;strokeColor=#6881B3;" parent="1" target="jVW55D45m2aqDD3Mp7KM-9" edge="1">
          <mxGeometry width="50" height="50" relative="1" as="geometry">
            <mxPoint x="158.41999999999985" y="214.76199999999994" as="sourcePoint"/>
            <mxPoint x="215" y="252" as="targetPoint"/>
          </mxGeometry>
        </mxCell>
        <mxCell id="jVW55D45m2aqDD3Mp7KM-11" value="" style="shadow=0;dashed=0;html=1;labelPosition=center;verticalLabelPosition=bottom;verticalAlign=top;align=center;outlineConnect=0;shape=mxgraph.veeam.3d.proxy_appliance;direction=east;" parent="1" vertex="1">
          <mxGeometry x="301" y="188" width="46" height="44.5625" as="geometry"/>
        </mxCell>
        <mxCell id="jVW55D45m2aqDD3Mp7KM-12" value="&lt;font style=&quot;font-size: 15px&quot;&gt;DMZ区&lt;/font&gt;" style="text;html=1;resizable=0;points=[];autosize=1;align=center;verticalAlign=top;spacingTop=-4;fontSize=12;" parent="1" vertex="1">
          <mxGeometry x="332" y="50" width="58" height="15" as="geometry"/>
        </mxCell>
        <mxCell id="jVW55D45m2aqDD3Mp7KM-13" value="" style="endArrow=none;html=1;strokeColor=#6881B3;strokeWidth=1;fontSize=12;exitX=1;exitY=0.5;exitDx=0;exitDy=0;entryX=0.512;entryY=0.583;entryDx=0;entryDy=0;entryPerimeter=0;" parent="1" source="jVW55D45m2aqDD3Mp7KM-9" target="jVW55D45m2aqDD3Mp7KM-11" edge="1">
          <mxGeometry width="50" height="50" relative="1" as="geometry">
            <mxPoint x="217" y="205" as="sourcePoint"/>
            <mxPoint x="327" y="132" as="targetPoint"/>
          </mxGeometry>
        </mxCell>
        <mxCell id="jVW55D45m2aqDD3Mp7KM-14" value="&lt;font style=&quot;font-size: 15px&quot;&gt;互联网区&lt;/font&gt;" style="text;html=1;resizable=0;points=[];autosize=1;align=left;verticalAlign=top;spacingTop=-4;fontSize=12;" parent="1" vertex="1">
          <mxGeometry x="864.5" y="43" width="70" height="15" as="geometry"/>
        </mxCell>
        <mxCell id="jVW55D45m2aqDD3Mp7KM-15" value="" style="shape=image;html=1;verticalAlign=top;verticalLabelPosition=bottom;labelBackgroundColor=#ffffff;imageAspect=0;aspect=fixed;image=https://cdn4.iconfinder.com/data/icons/VISTA/networking/png/128/firewall.png;strokeColor=#6881B3;fillColor=#99CCFF;fontSize=12;align=center;" parent="1" vertex="1">
          <mxGeometry x="474" y="192" width="40" height="40" as="geometry"/>
        </mxCell>
        <mxCell id="jVW55D45m2aqDD3Mp7KM-16" value="" style="endArrow=none;html=1;strokeColor=#6881B3;strokeWidth=1;fontSize=12;exitX=1;exitY=0.5;exitDx=0;exitDy=0;entryX=0;entryY=0.25;entryDx=0;entryDy=0;" parent="1" source="jVW55D45m2aqDD3Mp7KM-80" target="jVW55D45m2aqDD3Mp7KM-15" edge="1">
          <mxGeometry width="50" height="50" relative="1" as="geometry">
            <mxPoint x="400.4000000000001" y="217.1199999999999" as="sourcePoint"/>
            <mxPoint x="537" y="262" as="targetPoint"/>
          </mxGeometry>
        </mxCell>
        <mxCell id="jVW55D45m2aqDD3Mp7KM-18" value="" style="endArrow=none;html=1;strokeColor=#6881B3;strokeWidth=1;fontSize=12;entryX=0.009;entryY=0.667;entryDx=0;entryDy=0;entryPerimeter=0;" parent="1" edge="1" target="zUVz9iLzvqFxni2BXEmU-132">
          <mxGeometry width="50" height="50" relative="1" as="geometry">
            <mxPoint x="519" y="209" as="sourcePoint"/>
            <mxPoint x="620" y="210" as="targetPoint"/>
          </mxGeometry>
        </mxCell>
        <mxCell id="jVW55D45m2aqDD3Mp7KM-19" value="外联前置&lt;br style=&quot;font-size: 10px&quot;&gt;堡垒机" style="text;html=1;resizable=0;points=[];autosize=1;align=center;verticalAlign=top;spacingTop=-4;fontSize=10;" parent="1" vertex="1">
          <mxGeometry x="376" y="165" width="50" height="24" as="geometry"/>
        </mxCell>
        <mxCell id="jVW55D45m2aqDD3Mp7KM-31" value="" style="rounded=0;whiteSpace=wrap;html=1;strokeColor=#6c8ebf;strokeWidth=1;fillColor=#dae8fc;fontSize=8;align=center;" parent="1" vertex="1">
          <mxGeometry x="1026" y="434.8529411764706" width="170" height="310" as="geometry"/>
        </mxCell>
        <mxCell id="jVW55D45m2aqDD3Mp7KM-32" value="&lt;font style=&quot;font-size: 15px&quot;&gt;AG区&lt;/font&gt;" style="text;html=1;resizable=0;points=[];autosize=1;align=center;verticalAlign=top;spacingTop=-4;fontSize=12;" parent="1" vertex="1">
          <mxGeometry x="1085.5" y="444.8529411764706" width="47" height="15" as="geometry"/>
        </mxCell>
        <mxCell id="jVW55D45m2aqDD3Mp7KM-33" value="负载均衡器" style="text;html=1;resizable=0;points=[];autosize=1;align=center;verticalAlign=top;spacingTop=-4;fontSize=10;" parent="1" vertex="1">
          <mxGeometry x="287" y="239" width="60" height="10" as="geometry"/>
        </mxCell>
        <mxCell id="jVW55D45m2aqDD3Mp7KM-35" value="" style="shadow=0;dashed=0;html=1;labelPosition=center;verticalLabelPosition=bottom;verticalAlign=top;align=center;outlineConnect=0;shape=mxgraph.veeam.3d.proxy_appliance;direction=east;" parent="1" vertex="1">
          <mxGeometry x="1086.5" y="490.8529411764706" width="46" height="44.5625" as="geometry"/>
        </mxCell>
        <mxCell id="jVW55D45m2aqDD3Mp7KM-36" value="负载均衡器" style="text;html=1;resizable=0;points=[];autosize=1;align=center;verticalAlign=top;spacingTop=-4;fontSize=10;" parent="1" vertex="1">
          <mxGeometry x="1079.5" y="537.8529411764706" width="60" height="10" as="geometry"/>
        </mxCell>
        <mxCell id="jVW55D45m2aqDD3Mp7KM-37" value="" style="html=1;fillColor=#99CCFF;strokeColor=#6881B3;gradientColor=none;gradientDirection=north;strokeWidth=1;shape=mxgraph.networks.bus;gradientColor=none;gradientDirection=north;fontColor=#ffffff;perimeter=backbonePerimeter;backboneSize=20;align=center;fontSize=12;" parent="1" vertex="1">
          <mxGeometry x="1059.5" y="598.8529411764706" width="100" height="10" as="geometry"/>
        </mxCell>
        <mxCell id="jVW55D45m2aqDD3Mp7KM-140" style="edgeStyle=orthogonalEdgeStyle;rounded=0;orthogonalLoop=1;jettySize=auto;html=1;exitX=1;exitY=0.5;exitDx=0;exitDy=0;strokeColor=#6881B3;endArrow=none;endFill=0;" parent="1" source="jVW55D45m2aqDD3Mp7KM-39" target="jVW55D45m2aqDD3Mp7KM-137" edge="1">
          <mxGeometry relative="1" as="geometry">
            <Array as="points">
              <mxPoint x="1285" y="605"/>
              <mxPoint x="1285" y="210"/>
            </Array>
          </mxGeometry>
        </mxCell>
        <mxCell id="jVW55D45m2aqDD3Mp7KM-39" value="" style="shape=image;html=1;verticalAlign=top;verticalLabelPosition=bottom;labelBackgroundColor=#ffffff;imageAspect=0;aspect=fixed;image=https://cdn4.iconfinder.com/data/icons/VISTA/networking/png/128/firewall.png;strokeColor=#6881B3;fillColor=#99CCFF;fontSize=12;align=center;" parent="1" vertex="1">
          <mxGeometry x="1233.5" y="586" width="40" height="40" as="geometry"/>
        </mxCell>
        <mxCell id="jVW55D45m2aqDD3Mp7KM-40" value="" style="endArrow=none;html=1;strokeColor=#6881B3;strokeWidth=1;fontSize=8;exitX=0.485;exitY=-0.318;exitDx=0;exitDy=0;exitPerimeter=0;entryX=0.456;entryY=1.182;entryDx=0;entryDy=0;entryPerimeter=0;" parent="1" source="jVW55D45m2aqDD3Mp7KM-37" target="jVW55D45m2aqDD3Mp7KM-36" edge="1">
          <mxGeometry width="50" height="50" relative="1" as="geometry">
            <mxPoint x="1190.5" y="589.8529411764706" as="sourcePoint"/>
            <mxPoint x="1240.5" y="539.8529411764706" as="targetPoint"/>
          </mxGeometry>
        </mxCell>
        <mxCell id="jVW55D45m2aqDD3Mp7KM-41" value="" style="group" parent="1" vertex="1" connectable="0">
          <mxGeometry x="1090" y="661.8529411764706" width="42.39999999999998" height="40" as="geometry"/>
        </mxCell>
        <mxCell id="jVW55D45m2aqDD3Mp7KM-42" value="" style="aspect=fixed;perimeter=ellipsePerimeter;html=1;align=center;shadow=0;dashed=0;spacingTop=3;image;image=img/lib/active_directory/generic_server.svg;strokeColor=#6881B3;strokeWidth=1;fillColor=#99CCFF;fontSize=8;" parent="jVW55D45m2aqDD3Mp7KM-41" vertex="1">
          <mxGeometry width="22.4" height="40" as="geometry"/>
        </mxCell>
        <mxCell id="jVW55D45m2aqDD3Mp7KM-43" value="" style="aspect=fixed;perimeter=ellipsePerimeter;html=1;align=center;shadow=0;dashed=0;spacingTop=3;image;image=img/lib/active_directory/generic_server.svg;strokeColor=#6881B3;strokeWidth=1;fillColor=#99CCFF;fontSize=8;" parent="jVW55D45m2aqDD3Mp7KM-41" vertex="1">
          <mxGeometry x="20" width="22.4" height="40" as="geometry"/>
        </mxCell>
        <mxCell id="jVW55D45m2aqDD3Mp7KM-44" value="内联接口&lt;br style=&quot;font-size: 10px;&quot;&gt;堡垒机" style="text;html=1;resizable=0;points=[];autosize=1;align=center;verticalAlign=top;spacingTop=-4;fontSize=10;" parent="1" vertex="1">
          <mxGeometry x="1087.5" y="701.8529411764706" width="50" height="20" as="geometry"/>
        </mxCell>
        <mxCell id="jVW55D45m2aqDD3Mp7KM-45" value="" style="strokeColor=#6881B3;edgeStyle=none;rounded=0;endArrow=none;html=1;strokeWidth=1;fontSize=12;" parent="1" edge="1">
          <mxGeometry relative="1" as="geometry">
            <mxPoint x="1109.5" y="664.8529411764706" as="sourcePoint"/>
            <mxPoint x="1109.5" y="614.9999999999999" as="targetPoint"/>
            <Array as="points">
              <mxPoint x="1109.5" y="641.8529411764706"/>
            </Array>
          </mxGeometry>
        </mxCell>
        <mxCell id="jVW55D45m2aqDD3Mp7KM-46" value="" style="rounded=0;whiteSpace=wrap;html=1;strokeColor=#82b366;strokeWidth=1;fillColor=#d5e8d4;fontSize=8;align=center;" parent="1" vertex="1">
          <mxGeometry x="276" y="431" width="586" height="310" as="geometry"/>
        </mxCell>
        <mxCell id="jVW55D45m2aqDD3Mp7KM-47" value="" style="html=1;fillColor=#99CCFF;strokeColor=#6881B3;gradientColor=none;gradientDirection=north;strokeWidth=1;shape=mxgraph.networks.bus;gradientColor=none;gradientDirection=north;fontColor=#ffffff;perimeter=backbonePerimeter;backboneSize=20;align=center;" parent="1" vertex="1">
          <mxGeometry x="432" y="599" width="373" height="20" as="geometry"/>
        </mxCell>
        <mxCell id="jVW55D45m2aqDD3Mp7KM-48" value="" style="strokeColor=#6881B3;edgeStyle=none;rounded=0;endArrow=none;html=1;strokeWidth=1;fontSize=8;" parent="1" edge="1">
          <mxGeometry relative="1" as="geometry">
            <mxPoint x="505.5" y="557.3529411764706" as="sourcePoint"/>
            <mxPoint x="505.5" y="600.0294117647057" as="targetPoint"/>
          </mxGeometry>
        </mxCell>
        <mxCell id="jVW55D45m2aqDD3Mp7KM-49" value="" style="strokeColor=#6881B3;edgeStyle=none;rounded=0;endArrow=none;html=1;strokeWidth=1;fontSize=8;" parent="1" edge="1">
          <mxGeometry relative="1" as="geometry">
            <mxPoint x="644.5" y="558.3529411764706" as="sourcePoint"/>
            <mxPoint x="644.5" y="601.0294117647057" as="targetPoint"/>
          </mxGeometry>
        </mxCell>
        <mxCell id="jVW55D45m2aqDD3Mp7KM-50" value="" style="strokeColor=#6881B3;edgeStyle=none;rounded=0;endArrow=none;html=1;strokeWidth=1;fontSize=8;" parent="1" edge="1">
          <mxGeometry relative="1" as="geometry">
            <mxPoint x="716.5" y="560.8529411764706" as="sourcePoint"/>
            <mxPoint x="716.5" y="600.0196078431374" as="targetPoint"/>
          </mxGeometry>
        </mxCell>
        <mxCell id="jVW55D45m2aqDD3Mp7KM-51" value="" style="shadow=0;dashed=0;html=1;labelPosition=center;verticalLabelPosition=bottom;verticalAlign=top;align=center;outlineConnect=0;shape=mxgraph.veeam.3d.proxy_appliance;direction=east;" parent="1" vertex="1">
          <mxGeometry x="349" y="659.8529411764706" width="45" height="44" as="geometry"/>
        </mxCell>
        <mxCell id="jVW55D45m2aqDD3Mp7KM-52" value="负载均衡器" style="text;html=1;resizable=0;points=[];autosize=1;align=center;verticalAlign=top;spacingTop=-4;fontSize=10;" parent="1" vertex="1">
          <mxGeometry x="338" y="707.8529411764706" width="60" height="10" as="geometry"/>
        </mxCell>
        <mxCell id="jVW55D45m2aqDD3Mp7KM-53" value="" style="aspect=fixed;perimeter=ellipsePerimeter;html=1;align=center;shadow=0;dashed=0;spacingTop=3;image;image=img/lib/active_directory/generic_server.svg;strokeColor=#6881B3;strokeWidth=1;fillColor=#99CCFF;fontSize=8;" parent="1" vertex="1">
          <mxGeometry x="705.5" y="495" width="22.4" height="40" as="geometry"/>
        </mxCell>
        <mxCell id="jVW55D45m2aqDD3Mp7KM-54" value="" style="aspect=fixed;perimeter=ellipsePerimeter;html=1;align=center;shadow=0;dashed=0;spacingTop=3;image;image=img/lib/active_directory/generic_server.svg;strokeColor=#6881B3;strokeWidth=1;fillColor=#99CCFF;fontSize=8;" parent="1" vertex="1">
          <mxGeometry x="633" y="495" width="22.4" height="40" as="geometry"/>
        </mxCell>
        <mxCell id="jVW55D45m2aqDD3Mp7KM-55" value="企业服务&lt;br&gt;总线" style="text;html=1;resizable=0;points=[];autosize=1;align=center;verticalAlign=top;spacingTop=-4;fontSize=10;" parent="1" vertex="1">
          <mxGeometry x="688" y="535" width="58" height="24" as="geometry"/>
        </mxCell>
        <mxCell id="jVW55D45m2aqDD3Mp7KM-56" value="渠道管理&lt;br&gt;平台" style="text;html=1;resizable=0;points=[];autosize=1;align=center;verticalAlign=top;spacingTop=-4;fontSize=10;" parent="1" vertex="1">
          <mxGeometry x="618" y="535" width="58" height="24" as="geometry"/>
        </mxCell>
        <mxCell id="jVW55D45m2aqDD3Mp7KM-57" value="" style="aspect=fixed;perimeter=ellipsePerimeter;html=1;align=center;shadow=0;dashed=0;spacingTop=3;image;image=img/lib/active_directory/generic_server.svg;strokeColor=#6881B3;strokeWidth=1;fillColor=#99CCFF;fontSize=8;" parent="1" vertex="1">
          <mxGeometry x="496.5" y="495" width="22.4" height="40" as="geometry"/>
        </mxCell>
        <mxCell id="jVW55D45m2aqDD3Mp7KM-58" value="企业数据&lt;br&gt;总线" style="text;html=1;resizable=0;points=[];autosize=1;align=center;verticalAlign=top;spacingTop=-4;fontSize=10;" parent="1" vertex="1">
          <mxGeometry x="476" y="534.8529411764706" width="58" height="24" as="geometry"/>
        </mxCell>
        <mxCell id="jVW55D45m2aqDD3Mp7KM-59" value="" style="group" parent="1" vertex="1" connectable="0">
          <mxGeometry x="434.5" y="660.8529411764706" width="56" height="40" as="geometry"/>
        </mxCell>
        <mxCell id="jVW55D45m2aqDD3Mp7KM-60" value="" style="aspect=fixed;perimeter=ellipsePerimeter;html=1;align=center;shadow=0;dashed=0;spacingTop=3;image;image=img/lib/active_directory/web_server.svg;strokeColor=#6881B3;strokeWidth=1;fillColor=#99CCFF;fontSize=12;" parent="jVW55D45m2aqDD3Mp7KM-59" vertex="1">
          <mxGeometry width="32" height="40" as="geometry"/>
        </mxCell>
        <mxCell id="jVW55D45m2aqDD3Mp7KM-61" value="" style="aspect=fixed;perimeter=ellipsePerimeter;html=1;align=center;shadow=0;dashed=0;spacingTop=3;image;image=img/lib/active_directory/web_server.svg;strokeColor=#6881B3;strokeWidth=1;fillColor=#99CCFF;fontSize=12;" parent="jVW55D45m2aqDD3Mp7KM-59" vertex="1">
          <mxGeometry x="24" y="2" width="32" height="40" as="geometry"/>
        </mxCell>
        <mxCell id="jVW55D45m2aqDD3Mp7KM-62" value="核心区&lt;br&gt;业务应用服务器" style="text;html=1;resizable=0;points=[];autosize=1;align=center;verticalAlign=top;spacingTop=-4;fontSize=10;" parent="1" vertex="1">
          <mxGeometry x="418.5" y="706.8529411764706" width="80" height="24" as="geometry"/>
        </mxCell>
        <mxCell id="jVW55D45m2aqDD3Mp7KM-63" value="业务应用数据库" style="text;html=1;resizable=0;points=[];autosize=1;align=center;verticalAlign=top;spacingTop=-4;fontSize=10;" parent="1" vertex="1">
          <mxGeometry x="519.5" y="706.8529411764706" width="94" height="12" as="geometry"/>
        </mxCell>
        <mxCell id="jVW55D45m2aqDD3Mp7KM-64" value="" style="aspect=fixed;perimeter=ellipsePerimeter;html=1;align=center;shadow=0;dashed=0;spacingTop=3;image;image=img/lib/active_directory/database_server.svg;strokeColor=#6881B3;strokeWidth=1;fillColor=#99CCFF;fontSize=8;" parent="1" vertex="1">
          <mxGeometry x="530" y="662.8529411764706" width="32.8" height="40" as="geometry"/>
        </mxCell>
        <mxCell id="jVW55D45m2aqDD3Mp7KM-65" value="" style="aspect=fixed;perimeter=ellipsePerimeter;html=1;align=center;shadow=0;dashed=0;spacingTop=3;image;image=img/lib/active_directory/database_server.svg;strokeColor=#6881B3;strokeWidth=1;fillColor=#99CCFF;fontSize=8;" parent="1" vertex="1">
          <mxGeometry x="548" y="662.8529411764706" width="32.8" height="40" as="geometry"/>
        </mxCell>
        <mxCell id="jVW55D45m2aqDD3Mp7KM-66" value="" style="aspect=fixed;perimeter=ellipsePerimeter;html=1;align=center;shadow=0;dashed=0;spacingTop=3;image;image=img/lib/active_directory/database_server.svg;strokeColor=#6881B3;strokeWidth=1;fillColor=#99CCFF;fontSize=8;" parent="1" vertex="1">
          <mxGeometry x="566.5" y="662.8529411764706" width="32.8" height="40" as="geometry"/>
        </mxCell>
        <mxCell id="jVW55D45m2aqDD3Mp7KM-67" value="&lt;font style=&quot;font-size: 15px&quot;&gt;核心区&lt;/font&gt;" style="text;html=1;resizable=0;points=[];autosize=1;align=center;verticalAlign=top;spacingTop=-4;fontSize=12;" parent="1" vertex="1">
          <mxGeometry x="564.5" y="441.3529411764706" width="55" height="15" as="geometry"/>
        </mxCell>
        <mxCell id="jVW55D45m2aqDD3Mp7KM-68" value="" style="shape=image;html=1;verticalAlign=top;verticalLabelPosition=bottom;labelBackgroundColor=#ffffff;imageAspect=0;aspect=fixed;image=https://cdn4.iconfinder.com/data/icons/VISTA/networking/png/128/firewall.png;strokeColor=#6881B3;fillColor=#99CCFF;fontSize=12;align=center;" parent="1" vertex="1">
          <mxGeometry x="911.5" y="585.8529411764706" width="40" height="40" as="geometry"/>
        </mxCell>
        <mxCell id="jVW55D45m2aqDD3Mp7KM-69" value="" style="points=[];aspect=fixed;html=1;align=center;shadow=0;dashed=0;image;image=img/lib/allied_telesis/computer_and_terminals/Personal_Computer.svg;strokeColor=#6881B3;fillColor=#99CCFF;fontSize=12;" parent="1" vertex="1">
          <mxGeometry x="122" y="577.45" width="29.5" height="40.31666666666666" as="geometry"/>
        </mxCell>
        <mxCell id="jVW55D45m2aqDD3Mp7KM-70" value="" style="verticalLabelPosition=bottom;html=1;verticalAlign=top;align=center;strokeColor=none;fillColor=#00BEF2;shape=mxgraph.azure.user;" parent="1" vertex="1">
          <mxGeometry x="78" y="574.5" width="40" height="39.33333333333333" as="geometry"/>
        </mxCell>
        <mxCell id="jVW55D45m2aqDD3Mp7KM-71" value="区块链服务平台用户" style="text;html=1;resizable=0;points=[];autosize=1;align=center;verticalAlign=top;spacingTop=-4;fontSize=12;" parent="1" vertex="1">
          <mxGeometry x="40" y="617.8333333333333" width="118" height="14" as="geometry"/>
        </mxCell>
        <mxCell id="jVW55D45m2aqDD3Mp7KM-72" value="" style="endArrow=none;html=1;strokeColor=#6881B3;exitX=0.926;exitY=0.743;exitDx=0;exitDy=0;exitPerimeter=0;entryX=0;entryY=0.5;entryDx=0;entryDy=0;" parent="1" source="jVW55D45m2aqDD3Mp7KM-37" target="jVW55D45m2aqDD3Mp7KM-39" edge="1">
          <mxGeometry width="50" height="50" relative="1" as="geometry">
            <mxPoint x="1227" y="701" as="sourcePoint"/>
            <mxPoint x="1277" y="651" as="targetPoint"/>
          </mxGeometry>
        </mxCell>
        <mxCell id="jVW55D45m2aqDD3Mp7KM-73" value="" style="points=[];aspect=fixed;html=1;align=center;shadow=0;dashed=0;image;image=img/lib/allied_telesis/computer_and_terminals/Personal_Computer.svg;strokeColor=#6881B3;fillColor=#99CCFF;fontSize=12;" parent="1" vertex="1">
          <mxGeometry x="136" y="660.8529411764707" width="30" height="41" as="geometry"/>
        </mxCell>
        <mxCell id="jVW55D45m2aqDD3Mp7KM-74" value="" style="verticalLabelPosition=bottom;html=1;verticalAlign=top;align=center;strokeColor=none;fillColor=#E6E6E6;shape=mxgraph.azure.user;" parent="1" vertex="1">
          <mxGeometry x="86" y="657.8529411764706" width="40" height="40" as="geometry"/>
        </mxCell>
        <mxCell id="jVW55D45m2aqDD3Mp7KM-75" value="应用用户" style="text;html=1;resizable=0;points=[];autosize=1;align=center;verticalAlign=top;spacingTop=-4;fontSize=12;" parent="1" vertex="1">
          <mxGeometry x="78" y="701.8529411764707" width="58" height="14" as="geometry"/>
        </mxCell>
        <mxCell id="jVW55D45m2aqDD3Mp7KM-76" value="" style="endArrow=none;html=1;strokeColor=#6881B3;entryX=0;entryY=0.5;entryDx=0;entryDy=0;" parent="1" target="jVW55D45m2aqDD3Mp7KM-68" edge="1">
          <mxGeometry width="50" height="50" relative="1" as="geometry">
            <mxPoint x="796" y="606" as="sourcePoint"/>
            <mxPoint x="770" y="640" as="targetPoint"/>
          </mxGeometry>
        </mxCell>
        <mxCell id="jVW55D45m2aqDD3Mp7KM-77" value="" style="endArrow=none;html=1;strokeColor=#6881B3;entryX=0.024;entryY=0.6;entryDx=0;entryDy=0;entryPerimeter=0;" parent="1" target="jVW55D45m2aqDD3Mp7KM-37" edge="1">
          <mxGeometry width="50" height="50" relative="1" as="geometry">
            <mxPoint x="977.5" y="605.6613702952448" as="sourcePoint"/>
            <mxPoint x="880" y="604" as="targetPoint"/>
          </mxGeometry>
        </mxCell>
        <mxCell id="jVW55D45m2aqDD3Mp7KM-78" value="" style="endArrow=none;html=1;strokeColor=#6881B3;" parent="1" source="jVW55D45m2aqDD3Mp7KM-73" target="jVW55D45m2aqDD3Mp7KM-51" edge="1">
          <mxGeometry width="50" height="50" relative="1" as="geometry">
            <mxPoint x="249" y="615" as="sourcePoint"/>
            <mxPoint x="299" y="565" as="targetPoint"/>
          </mxGeometry>
        </mxCell>
        <mxCell id="jVW55D45m2aqDD3Mp7KM-79" value="" style="aspect=fixed;perimeter=ellipsePerimeter;html=1;align=center;shadow=0;dashed=0;spacingTop=3;image;image=img/lib/active_directory/generic_server.svg;strokeColor=#6881B3;strokeWidth=1;fillColor=#99CCFF;fontSize=8;" parent="1" vertex="1">
          <mxGeometry x="391" y="244" width="22.4" height="40" as="geometry"/>
        </mxCell>
        <mxCell id="jVW55D45m2aqDD3Mp7KM-80" value="" style="aspect=fixed;perimeter=ellipsePerimeter;html=1;align=center;shadow=0;dashed=0;spacingTop=3;image;image=img/lib/active_directory/generic_server.svg;strokeColor=#6881B3;strokeWidth=1;fillColor=#99CCFF;fontSize=8;" parent="1" vertex="1">
          <mxGeometry x="391" y="125" width="22.4" height="40" as="geometry"/>
        </mxCell>
        <mxCell id="jVW55D45m2aqDD3Mp7KM-81" value="外联前置&lt;br style=&quot;font-size: 10px&quot;&gt;堡垒机" style="text;html=1;resizable=0;points=[];autosize=1;align=center;verticalAlign=top;spacingTop=-4;fontSize=10;" parent="1" vertex="1">
          <mxGeometry x="376" y="282.5" width="50" height="24" as="geometry"/>
        </mxCell>
        <mxCell id="jVW55D45m2aqDD3Mp7KM-82" value="" style="endArrow=none;html=1;entryX=0;entryY=0.5;entryDx=0;entryDy=0;strokeColor=#6881B3;" parent="1" source="jVW55D45m2aqDD3Mp7KM-11" target="jVW55D45m2aqDD3Mp7KM-80" edge="1">
          <mxGeometry width="50" height="50" relative="1" as="geometry">
            <mxPoint x="337" y="173" as="sourcePoint"/>
            <mxPoint x="387" y="123" as="targetPoint"/>
          </mxGeometry>
        </mxCell>
        <mxCell id="jVW55D45m2aqDD3Mp7KM-83" value="" style="endArrow=none;html=1;strokeColor=#6881B3;exitX=0;exitY=0.5;exitDx=0;exitDy=0;" parent="1" source="jVW55D45m2aqDD3Mp7KM-79" target="jVW55D45m2aqDD3Mp7KM-11" edge="1">
          <mxGeometry width="50" height="50" relative="1" as="geometry">
            <mxPoint x="294" y="353" as="sourcePoint"/>
            <mxPoint x="344" y="303" as="targetPoint"/>
          </mxGeometry>
        </mxCell>
        <mxCell id="jVW55D45m2aqDD3Mp7KM-84" value="" style="endArrow=none;html=1;strokeColor=#6881B3;exitX=1;exitY=0.5;exitDx=0;exitDy=0;entryX=0;entryY=0.5;entryDx=0;entryDy=0;" parent="1" source="jVW55D45m2aqDD3Mp7KM-79" target="jVW55D45m2aqDD3Mp7KM-15" edge="1">
          <mxGeometry width="50" height="50" relative="1" as="geometry">
            <mxPoint x="472" y="366" as="sourcePoint"/>
            <mxPoint x="522" y="316" as="targetPoint"/>
          </mxGeometry>
        </mxCell>
        <mxCell id="jVW55D45m2aqDD3Mp7KM-116" value="" style="endArrow=none;html=1;strokeColor=#6881B3;entryX=0;entryY=0.5;entryDx=0;entryDy=0;" parent="1" source="jVW55D45m2aqDD3Mp7KM-51" target="jVW55D45m2aqDD3Mp7KM-60" edge="1">
          <mxGeometry width="50" height="50" relative="1" as="geometry">
            <mxPoint x="416" y="709" as="sourcePoint"/>
            <mxPoint x="466" y="659" as="targetPoint"/>
          </mxGeometry>
        </mxCell>
        <mxCell id="jVW55D45m2aqDD3Mp7KM-117" style="edgeStyle=orthogonalEdgeStyle;rounded=0;orthogonalLoop=1;jettySize=auto;html=1;endArrow=none;endFill=0;strokeColor=#6881B3;" parent="1" source="jVW55D45m2aqDD3Mp7KM-61" target="jVW55D45m2aqDD3Mp7KM-64" edge="1">
          <mxGeometry relative="1" as="geometry"/>
        </mxCell>
        <mxCell id="jVW55D45m2aqDD3Mp7KM-118" value="" style="aspect=fixed;perimeter=ellipsePerimeter;html=1;align=center;shadow=0;dashed=0;spacingTop=3;image;image=img/lib/active_directory/generic_server.svg;strokeColor=#6881B3;strokeWidth=1;fillColor=#99CCFF;fontSize=8;" parent="1" vertex="1">
          <mxGeometry x="773.5" y="495" width="22.4" height="40" as="geometry"/>
        </mxCell>
        <mxCell id="jVW55D45m2aqDD3Mp7KM-119" value="短信平台" style="text;html=1;resizable=0;points=[];autosize=1;align=center;verticalAlign=top;spacingTop=-4;fontSize=10;" parent="1" vertex="1">
          <mxGeometry x="761" y="535" width="58" height="14" as="geometry"/>
        </mxCell>
        <mxCell id="jVW55D45m2aqDD3Mp7KM-120" value="" style="aspect=fixed;perimeter=ellipsePerimeter;html=1;align=center;shadow=0;dashed=0;spacingTop=3;image;image=img/lib/active_directory/generic_server.svg;strokeColor=#6881B3;strokeWidth=1;fillColor=#99CCFF;fontSize=8;" parent="1" vertex="1">
          <mxGeometry x="565" y="495" width="22.4" height="40" as="geometry"/>
        </mxCell>
        <mxCell id="jVW55D45m2aqDD3Mp7KM-121" value="柜员管理&lt;br&gt;系统" style="text;html=1;resizable=0;points=[];autosize=1;align=center;verticalAlign=top;spacingTop=-4;" parent="1" vertex="1">
          <mxGeometry x="545" y="535" width="58" height="28" as="geometry"/>
        </mxCell>
        <mxCell id="jVW55D45m2aqDD3Mp7KM-122" style="edgeStyle=orthogonalEdgeStyle;rounded=0;orthogonalLoop=1;jettySize=auto;html=1;exitX=0.5;exitY=0;exitDx=0;exitDy=0;entryX=0.049;entryY=0.864;entryDx=0;entryDy=0;entryPerimeter=0;endArrow=none;endFill=0;strokeColor=#6881B3;" parent="1" edge="1">
          <mxGeometry relative="1" as="geometry">
            <mxPoint x="460.28571428571445" y="662.5714285714287" as="sourcePoint"/>
            <mxPoint x="460.28571428571445" y="618.2857142857144" as="targetPoint"/>
          </mxGeometry>
        </mxCell>
        <mxCell id="jVW55D45m2aqDD3Mp7KM-123" value="" style="endArrow=none;html=1;strokeColor=#6881B3;entryX=-0.001;entryY=0.436;entryDx=0;entryDy=0;entryPerimeter=0;exitX=1.056;exitY=0.751;exitDx=0;exitDy=0;exitPerimeter=0;" parent="1" source="jVW55D45m2aqDD3Mp7KM-69" target="jVW55D45m2aqDD3Mp7KM-47" edge="1">
          <mxGeometry width="50" height="50" relative="1" as="geometry">
            <mxPoint x="315" y="620" as="sourcePoint"/>
            <mxPoint x="365" y="570" as="targetPoint"/>
          </mxGeometry>
        </mxCell>
        <mxCell id="jVW55D45m2aqDD3Mp7KM-131" value="" style="strokeColor=#6881B3;edgeStyle=none;rounded=0;endArrow=none;html=1;strokeWidth=1;fontSize=8;" parent="1" edge="1">
          <mxGeometry relative="1" as="geometry">
            <mxPoint x="575.5" y="557" as="sourcePoint"/>
            <mxPoint x="575.5" y="599.6764705882351" as="targetPoint"/>
          </mxGeometry>
        </mxCell>
        <mxCell id="jVW55D45m2aqDD3Mp7KM-132" value="" style="strokeColor=#6881B3;edgeStyle=none;rounded=0;endArrow=none;html=1;strokeWidth=1;fontSize=8;" parent="1" edge="1">
          <mxGeometry relative="1" as="geometry">
            <mxPoint x="784" y="555" as="sourcePoint"/>
            <mxPoint x="784" y="597.6764705882351" as="targetPoint"/>
          </mxGeometry>
        </mxCell>
        <mxCell id="jVW55D45m2aqDD3Mp7KM-149" value="" style="edgeStyle=orthogonalEdgeStyle;rounded=0;orthogonalLoop=1;jettySize=auto;html=1;endArrow=none;endFill=0;strokeColor=#6881B3;fontSize=10;" parent="1" source="jVW55D45m2aqDD3Mp7KM-137" target="jVW55D45m2aqDD3Mp7KM-146" edge="1">
          <mxGeometry relative="1" as="geometry"/>
        </mxCell>
        <mxCell id="jVW55D45m2aqDD3Mp7KM-137" value="" style="shadow=0;dashed=0;html=1;labelPosition=center;verticalLabelPosition=bottom;verticalAlign=top;align=center;outlineConnect=0;shape=mxgraph.veeam.3d.proxy_appliance;direction=east;" parent="1" vertex="1">
          <mxGeometry x="1177.5" y="185" width="46" height="44.5625" as="geometry"/>
        </mxCell>
        <mxCell id="jVW55D45m2aqDD3Mp7KM-138" value="负载均衡器" style="text;html=1;resizable=0;points=[];autosize=1;align=center;verticalAlign=top;spacingTop=-4;fontSize=10;" parent="1" vertex="1">
          <mxGeometry x="1170.5" y="231" width="60" height="10" as="geometry"/>
        </mxCell>
        <mxCell id="jVW55D45m2aqDD3Mp7KM-145" value="" style="group" parent="1" vertex="1" connectable="0">
          <mxGeometry x="1090" y="187.5" width="42.39999999999998" height="40" as="geometry"/>
        </mxCell>
        <mxCell id="jVW55D45m2aqDD3Mp7KM-146" value="" style="aspect=fixed;perimeter=ellipsePerimeter;html=1;align=center;shadow=0;dashed=0;spacingTop=3;image;image=img/lib/active_directory/generic_server.svg;strokeColor=#6881B3;strokeWidth=1;fillColor=#99CCFF;fontSize=8;" parent="jVW55D45m2aqDD3Mp7KM-145" vertex="1">
          <mxGeometry width="22.4" height="40" as="geometry"/>
        </mxCell>
        <mxCell id="jVW55D45m2aqDD3Mp7KM-147" value="" style="aspect=fixed;perimeter=ellipsePerimeter;html=1;align=center;shadow=0;dashed=0;spacingTop=3;image;image=img/lib/active_directory/generic_server.svg;strokeColor=#6881B3;strokeWidth=1;fillColor=#99CCFF;fontSize=8;" parent="jVW55D45m2aqDD3Mp7KM-145" vertex="1">
          <mxGeometry x="20" width="22.4" height="40" as="geometry"/>
        </mxCell>
        <mxCell id="jVW55D45m2aqDD3Mp7KM-148" value="堡垒机" style="text;html=1;resizable=0;points=[];autosize=1;align=center;verticalAlign=top;spacingTop=-4;fontSize=10;" parent="1" vertex="1">
          <mxGeometry x="1092.5" y="227.5" width="40" height="12" as="geometry"/>
        </mxCell>
        <mxCell id="jVW55D45m2aqDD3Mp7KM-150" style="edgeStyle=orthogonalEdgeStyle;rounded=0;orthogonalLoop=1;jettySize=auto;html=1;exitX=0;exitY=0.5;exitDx=0;exitDy=0;endArrow=none;endFill=0;strokeColor=#6881B3;fontSize=10;entryX=0.984;entryY=0.433;entryDx=0;entryDy=0;entryPerimeter=0;" parent="1" source="jVW55D45m2aqDD3Mp7KM-146" target="zUVz9iLzvqFxni2BXEmU-132" edge="1">
          <mxGeometry relative="1" as="geometry">
            <mxPoint x="1039" y="207" as="targetPoint"/>
            <Array as="points">
              <mxPoint x="1025" y="207"/>
              <mxPoint x="1025" y="207"/>
            </Array>
          </mxGeometry>
        </mxCell>
        <mxCell id="jVW55D45m2aqDD3Mp7KM-151" value="" style="aspect=fixed;perimeter=ellipsePerimeter;html=1;align=center;shadow=0;dashed=0;spacingTop=3;image;image=img/lib/active_directory/internet_cloud.svg;fontSize=10;" parent="1" vertex="1">
          <mxGeometry x="27" y="173" width="124" height="78" as="geometry"/>
        </mxCell>
        <mxCell id="jVW55D45m2aqDD3Mp7KM-152" value="联盟链其他机构" style="text;html=1;resizable=0;points=[];autosize=1;align=left;verticalAlign=top;spacingTop=-4;fontSize=14;" parent="1" vertex="1">
          <mxGeometry x="40" y="203" width="80" height="12" as="geometry"/>
        </mxCell>
        <mxCell id="zUVz9iLzvqFxni2BXEmU-131" value="" style="rounded=0;whiteSpace=wrap;html=1;fillColor=none;fontSize=10;dashed=1;strokeColor=#d79b00;strokeWidth=2;" vertex="1" parent="1">
          <mxGeometry x="634.5" y="85" width="395" height="271" as="geometry"/>
        </mxCell>
        <mxCell id="zUVz9iLzvqFxni2BXEmU-132" value="" style="html=1;fillColor=#99CCFF;strokeColor=#6881B3;gradientColor=none;gradientDirection=north;strokeWidth=1;shape=mxgraph.networks.bus;gradientColor=none;gradientDirection=north;fontColor=#ffffff;perimeter=backbonePerimeter;backboneSize=20;align=center;fontSize=12;" vertex="1" parent="1">
          <mxGeometry x="655.5" y="202" width="347" height="10" as="geometry"/>
        </mxCell>
        <mxCell id="zUVz9iLzvqFxni2BXEmU-133" value="" style="strokeColor=#6881B3;edgeStyle=none;rounded=0;endArrow=none;html=1;strokeWidth=1;fontSize=12;" edge="1" parent="1">
          <mxGeometry relative="1" as="geometry">
            <mxPoint x="743" y="155.00000000000023" as="sourcePoint"/>
            <mxPoint x="743" y="197.92857142857133" as="targetPoint"/>
          </mxGeometry>
        </mxCell>
        <mxCell id="zUVz9iLzvqFxni2BXEmU-134" value="" style="strokeColor=#6881B3;edgeStyle=none;rounded=0;endArrow=none;html=1;strokeWidth=1;fontSize=12;" edge="1" parent="1">
          <mxGeometry relative="1" as="geometry">
            <mxPoint x="838.5" y="154.49999999999977" as="sourcePoint"/>
            <mxPoint x="838.5" y="196.67647058823536" as="targetPoint"/>
          </mxGeometry>
        </mxCell>
        <mxCell id="zUVz9iLzvqFxni2BXEmU-135" value="" style="strokeColor=#6881B3;edgeStyle=none;rounded=0;endArrow=none;html=1;strokeWidth=1;fontSize=12;" edge="1" parent="1">
          <mxGeometry relative="1" as="geometry">
            <mxPoint x="687" y="265.0000000000002" as="sourcePoint"/>
            <mxPoint x="687" y="215.00000000000023" as="targetPoint"/>
          </mxGeometry>
        </mxCell>
        <mxCell id="zUVz9iLzvqFxni2BXEmU-136" value="区块链服务平台&lt;br&gt;管理后台&lt;br&gt;(2台)" style="text;html=1;resizable=0;points=[];autosize=1;align=center;verticalAlign=top;spacingTop=-4;fontSize=10;fillColor=#DAE8FC;" vertex="1" parent="1">
          <mxGeometry x="704" y="141" width="80" height="36" as="geometry"/>
        </mxCell>
        <mxCell id="zUVz9iLzvqFxni2BXEmU-137" value="平台共识&lt;br&gt;服务器&lt;br&gt;(3台)" style="text;html=1;resizable=0;points=[];autosize=1;align=center;verticalAlign=top;spacingTop=-4;fontSize=10;" vertex="1" parent="1">
          <mxGeometry x="652.5" y="308" width="50" height="36" as="geometry"/>
        </mxCell>
        <mxCell id="zUVz9iLzvqFxni2BXEmU-138" value="" style="aspect=fixed;perimeter=ellipsePerimeter;html=1;align=center;shadow=0;dashed=0;spacingTop=3;image;image=img/lib/active_directory/generic_server.svg;strokeColor=#6881B3;strokeWidth=1;fillColor=#99CCFF;fontSize=8;" vertex="1" parent="1">
          <mxGeometry x="658.5" y="268" width="22.4" height="40" as="geometry"/>
        </mxCell>
        <mxCell id="zUVz9iLzvqFxni2BXEmU-139" value="平台账本&lt;br&gt;服务器&lt;br&gt;(4台)" style="text;html=1;resizable=0;points=[];autosize=1;align=center;verticalAlign=top;spacingTop=-4;fontSize=10;" vertex="1" parent="1">
          <mxGeometry x="727.5" y="307" width="50" height="36" as="geometry"/>
        </mxCell>
        <mxCell id="zUVz9iLzvqFxni2BXEmU-140" value="" style="aspect=fixed;perimeter=ellipsePerimeter;html=1;align=center;shadow=0;dashed=0;spacingTop=3;image;image=img/lib/active_directory/web_server.svg;strokeColor=#6881B3;strokeWidth=1;fillColor=#99CCFF;fontSize=12;" vertex="1" parent="1">
          <mxGeometry x="728.5" y="101" width="32" height="40" as="geometry"/>
        </mxCell>
        <mxCell id="zUVz9iLzvqFxni2BXEmU-141" value="" style="aspect=fixed;perimeter=ellipsePerimeter;html=1;align=center;shadow=0;dashed=0;spacingTop=3;image;image=img/lib/active_directory/web_server.svg;strokeColor=#6881B3;strokeWidth=1;fillColor=#99CCFF;fontSize=12;" vertex="1" parent="1">
          <mxGeometry x="747" y="101" width="32" height="40" as="geometry"/>
        </mxCell>
        <mxCell id="zUVz9iLzvqFxni2BXEmU-142" value="" style="aspect=fixed;perimeter=ellipsePerimeter;html=1;align=center;shadow=0;dashed=0;spacingTop=3;image;image=img/lib/active_directory/database_server.svg;strokeColor=#6881B3;strokeWidth=1;fillColor=#99CCFF;fontSize=8;" vertex="1" parent="1">
          <mxGeometry x="812" y="101" width="32.8" height="40" as="geometry"/>
        </mxCell>
        <mxCell id="zUVz9iLzvqFxni2BXEmU-143" value="管理后台&lt;br style=&quot;font-size: 10px&quot;&gt;PG数据库&lt;br&gt;(3台)" style="text;html=1;resizable=0;points=[];autosize=1;align=center;verticalAlign=top;spacingTop=-4;fillColor=#DAE8FC;fontSize=10;" vertex="1" parent="1">
          <mxGeometry x="812" y="139" width="54" height="36" as="geometry"/>
        </mxCell>
        <mxCell id="zUVz9iLzvqFxni2BXEmU-144" value="" style="aspect=fixed;perimeter=ellipsePerimeter;html=1;align=center;shadow=0;dashed=0;spacingTop=3;image;image=img/lib/active_directory/database_server.svg;strokeColor=#6881B3;strokeWidth=1;fillColor=#99CCFF;fontSize=8;" vertex="1" parent="1">
          <mxGeometry x="828" y="101" width="32.8" height="40" as="geometry"/>
        </mxCell>
        <mxCell id="zUVz9iLzvqFxni2BXEmU-145" value="" style="aspect=fixed;perimeter=ellipsePerimeter;html=1;align=center;shadow=0;dashed=0;spacingTop=3;image;image=img/lib/active_directory/database_server.svg;strokeColor=#6881B3;strokeWidth=1;fillColor=#99CCFF;fontSize=8;" vertex="1" parent="1">
          <mxGeometry x="848.5" y="101" width="32.8" height="40" as="geometry"/>
        </mxCell>
        <mxCell id="zUVz9iLzvqFxni2BXEmU-146" value="" style="aspect=fixed;perimeter=ellipsePerimeter;html=1;align=center;shadow=0;dashed=0;spacingTop=3;image;image=img/lib/active_directory/generic_server.svg;strokeColor=#6881B3;strokeWidth=1;fillColor=#99CCFF;fontSize=8;" vertex="1" parent="1">
          <mxGeometry x="675" y="268" width="22.4" height="40" as="geometry"/>
        </mxCell>
        <mxCell id="zUVz9iLzvqFxni2BXEmU-147" value="" style="strokeColor=#6881B3;edgeStyle=none;rounded=0;endArrow=none;html=1;strokeWidth=1;fontSize=12;" edge="1" parent="1">
          <mxGeometry relative="1" as="geometry">
            <mxPoint x="761" y="265.0000000000002" as="sourcePoint"/>
            <mxPoint x="761" y="215.00000000000023" as="targetPoint"/>
          </mxGeometry>
        </mxCell>
        <mxCell id="zUVz9iLzvqFxni2BXEmU-148" value="" style="aspect=fixed;perimeter=ellipsePerimeter;html=1;align=center;shadow=0;dashed=0;spacingTop=3;image;image=img/lib/active_directory/generic_server.svg;strokeColor=#6881B3;strokeWidth=1;fillColor=#99CCFF;fontSize=8;" vertex="1" parent="1">
          <mxGeometry x="691" y="268" width="22.4" height="40" as="geometry"/>
        </mxCell>
        <mxCell id="zUVz9iLzvqFxni2BXEmU-149" value="" style="aspect=fixed;perimeter=ellipsePerimeter;html=1;align=center;shadow=0;dashed=0;spacingTop=3;image;image=img/lib/active_directory/generic_server.svg;strokeColor=#6881B3;strokeWidth=1;fillColor=#99CCFF;fontSize=8;" vertex="1" parent="1">
          <mxGeometry x="726" y="268" width="22.4" height="40" as="geometry"/>
        </mxCell>
        <mxCell id="zUVz9iLzvqFxni2BXEmU-150" value="" style="strokeColor=#6881B3;edgeStyle=none;rounded=0;endArrow=none;html=1;strokeWidth=1;fontSize=12;" edge="1" parent="1">
          <mxGeometry relative="1" as="geometry">
            <mxPoint x="831" y="264" as="sourcePoint"/>
            <mxPoint x="831" y="214" as="targetPoint"/>
            <Array as="points">
              <mxPoint x="831" y="244"/>
            </Array>
          </mxGeometry>
        </mxCell>
        <mxCell id="zUVz9iLzvqFxni2BXEmU-151" value="" style="aspect=fixed;perimeter=ellipsePerimeter;html=1;align=center;shadow=0;dashed=0;spacingTop=3;image;image=img/lib/active_directory/generic_server.svg;strokeColor=#6881B3;strokeWidth=1;fillColor=#99CCFF;fontSize=8;" vertex="1" parent="1">
          <mxGeometry x="741.5" y="268" width="22.4" height="40" as="geometry"/>
        </mxCell>
        <mxCell id="zUVz9iLzvqFxni2BXEmU-152" value="" style="strokeColor=#6881B3;edgeStyle=none;rounded=0;endArrow=none;html=1;strokeWidth=1;fontSize=12;" edge="1" parent="1">
          <mxGeometry relative="1" as="geometry">
            <mxPoint x="904" y="265.0000000000002" as="sourcePoint"/>
            <mxPoint x="904" y="215.00000000000023" as="targetPoint"/>
            <Array as="points">
              <mxPoint x="904" y="245"/>
            </Array>
          </mxGeometry>
        </mxCell>
        <mxCell id="zUVz9iLzvqFxni2BXEmU-153" value="" style="aspect=fixed;perimeter=ellipsePerimeter;html=1;align=center;shadow=0;dashed=0;spacingTop=3;image;image=img/lib/active_directory/generic_server.svg;strokeColor=#6881B3;strokeWidth=1;fillColor=#99CCFF;fontSize=8;" vertex="1" parent="1">
          <mxGeometry x="756" y="268" width="22.4" height="40" as="geometry"/>
        </mxCell>
        <mxCell id="zUVz9iLzvqFxni2BXEmU-154" value="" style="strokeColor=#6881B3;edgeStyle=none;rounded=0;endArrow=none;html=1;strokeWidth=1;fontSize=12;" edge="1" parent="1">
          <mxGeometry relative="1" as="geometry">
            <mxPoint x="972.5" y="265.0000000000002" as="sourcePoint"/>
            <mxPoint x="972.5" y="215.00000000000023" as="targetPoint"/>
            <Array as="points">
              <mxPoint x="972.5" y="245"/>
            </Array>
          </mxGeometry>
        </mxCell>
        <mxCell id="zUVz9iLzvqFxni2BXEmU-155" value="" style="aspect=fixed;perimeter=ellipsePerimeter;html=1;align=center;shadow=0;dashed=0;spacingTop=3;image;image=img/lib/active_directory/generic_server.svg;strokeColor=#6881B3;strokeWidth=1;fillColor=#99CCFF;fontSize=8;" vertex="1" parent="1">
          <mxGeometry x="771.5" y="268" width="22.4" height="40" as="geometry"/>
        </mxCell>
        <mxCell id="zUVz9iLzvqFxni2BXEmU-159" value="" style="aspect=fixed;perimeter=ellipsePerimeter;html=1;align=center;shadow=0;dashed=0;spacingTop=3;image;image=img/lib/active_directory/web_server.svg;strokeColor=#6881B3;strokeWidth=1;fillColor=#99CCFF;fontSize=12;" vertex="1" parent="1">
          <mxGeometry x="809" y="268" width="32" height="40" as="geometry"/>
        </mxCell>
        <mxCell id="zUVz9iLzvqFxni2BXEmU-160" value="" style="aspect=fixed;perimeter=ellipsePerimeter;html=1;align=center;shadow=0;dashed=0;spacingTop=3;image;image=img/lib/active_directory/web_server.svg;strokeColor=#6881B3;strokeWidth=1;fillColor=#99CCFF;fontSize=12;" vertex="1" parent="1">
          <mxGeometry x="829" y="268" width="32" height="40" as="geometry"/>
        </mxCell>
        <mxCell id="zUVz9iLzvqFxni2BXEmU-161" value="监控平台&lt;br&gt;服务器&lt;br&gt;(2台)" style="text;html=1;resizable=0;points=[];autosize=1;align=center;verticalAlign=top;spacingTop=-4;fontSize=10;" vertex="1" parent="1">
          <mxGeometry x="802" y="310" width="50" height="36" as="geometry"/>
        </mxCell>
        <mxCell id="zUVz9iLzvqFxni2BXEmU-162" value="" style="aspect=fixed;perimeter=ellipsePerimeter;html=1;align=center;shadow=0;dashed=0;spacingTop=3;image;image=img/lib/active_directory/database_server.svg;strokeColor=#6881B3;strokeWidth=1;fillColor=#99CCFF;fontSize=8;" vertex="1" parent="1">
          <mxGeometry x="870" y="268" width="32.8" height="40" as="geometry"/>
        </mxCell>
        <mxCell id="zUVz9iLzvqFxni2BXEmU-163" value="" style="aspect=fixed;perimeter=ellipsePerimeter;html=1;align=center;shadow=0;dashed=0;spacingTop=3;image;image=img/lib/active_directory/database_server.svg;strokeColor=#6881B3;strokeWidth=1;fillColor=#99CCFF;fontSize=8;" vertex="1" parent="1">
          <mxGeometry x="889" y="268" width="32.8" height="40" as="geometry"/>
        </mxCell>
        <mxCell id="zUVz9iLzvqFxni2BXEmU-164" value="" style="aspect=fixed;perimeter=ellipsePerimeter;html=1;align=center;shadow=0;dashed=0;spacingTop=3;image;image=img/lib/active_directory/database_server.svg;strokeColor=#6881B3;strokeWidth=1;fillColor=#99CCFF;fontSize=8;" vertex="1" parent="1">
          <mxGeometry x="907" y="268" width="32.8" height="40" as="geometry"/>
        </mxCell>
        <mxCell id="zUVz9iLzvqFxni2BXEmU-165" value="监控平台&lt;br&gt;PG数据库&lt;br&gt;(3台)" style="text;html=1;resizable=0;points=[];autosize=1;align=center;verticalAlign=top;spacingTop=-4;fontSize=10;" vertex="1" parent="1">
          <mxGeometry x="871.5" y="310" width="54" height="36" as="geometry"/>
        </mxCell>
        <mxCell id="zUVz9iLzvqFxni2BXEmU-166" value="" style="aspect=fixed;perimeter=ellipsePerimeter;html=1;align=center;shadow=0;dashed=0;spacingTop=3;image;image=img/lib/active_directory/generic_server.svg;strokeColor=#6881B3;strokeWidth=1;fillColor=#99CCFF;fontSize=8;" vertex="1" parent="1">
          <mxGeometry x="952" y="268" width="22.4" height="40" as="geometry"/>
        </mxCell>
        <mxCell id="zUVz9iLzvqFxni2BXEmU-167" value="" style="aspect=fixed;perimeter=ellipsePerimeter;html=1;align=center;shadow=0;dashed=0;spacingTop=3;image;image=img/lib/active_directory/generic_server.svg;strokeColor=#6881B3;strokeWidth=1;fillColor=#99CCFF;fontSize=8;" vertex="1" parent="1">
          <mxGeometry x="970.5" y="268" width="22.4" height="40" as="geometry"/>
        </mxCell>
        <mxCell id="zUVz9iLzvqFxni2BXEmU-168" value="监控内存、消息、&lt;br&gt;jstorm服务器&lt;br&gt;(2台)" style="text;html=1;resizable=0;points=[];autosize=1;align=center;verticalAlign=top;spacingTop=-4;fontSize=10;" vertex="1" parent="1">
          <mxGeometry x="932" y="310" width="90" height="36" as="geometry"/>
        </mxCell>
        <mxCell id="zUVz9iLzvqFxni2BXEmU-170" value="" style="strokeColor=#6881B3;edgeStyle=none;rounded=0;endArrow=none;html=1;strokeWidth=1;fontSize=12;" edge="1" parent="1">
          <mxGeometry relative="1" as="geometry">
            <mxPoint x="914" y="158.00000000000023" as="sourcePoint"/>
            <mxPoint x="914" y="200.92857142857133" as="targetPoint"/>
          </mxGeometry>
        </mxCell>
        <mxCell id="zUVz9iLzvqFxni2BXEmU-171" value="区块链代理&lt;br&gt;(2台)" style="text;html=1;resizable=0;points=[];autosize=1;align=center;verticalAlign=top;spacingTop=-4;fontSize=10;fillColor=#DAE8FC;" vertex="1" parent="1">
          <mxGeometry x="885" y="144" width="60" height="24" as="geometry"/>
        </mxCell>
        <mxCell id="zUVz9iLzvqFxni2BXEmU-172" value="" style="aspect=fixed;perimeter=ellipsePerimeter;html=1;align=center;shadow=0;dashed=0;spacingTop=3;image;image=img/lib/active_directory/web_server.svg;strokeColor=#6881B3;strokeWidth=1;fillColor=#99CCFF;fontSize=12;" vertex="1" parent="1">
          <mxGeometry x="899.5" y="104" width="32" height="40" as="geometry"/>
        </mxCell>
        <mxCell id="zUVz9iLzvqFxni2BXEmU-173" value="" style="aspect=fixed;perimeter=ellipsePerimeter;html=1;align=center;shadow=0;dashed=0;spacingTop=3;image;image=img/lib/active_directory/web_server.svg;strokeColor=#6881B3;strokeWidth=1;fillColor=#99CCFF;fontSize=12;" vertex="1" parent="1">
          <mxGeometry x="918" y="104" width="32" height="40" as="geometry"/>
        </mxCell>
      </root>
    </mxGraphModel>
  </diagram>
</mxfile>
